<?xml version="1.0" encoding="UTF-8" standalone="no"?>
<!-- Created with Inkscape (http://www.inkscape.org/) -->

<svg
   xmlns:dc="http://purl.org/dc/elements/1.1/"
   xmlns:cc="http://creativecommons.org/ns#"
   xmlns:rdf="http://www.w3.org/1999/02/22-rdf-syntax-ns#"
   xmlns:svg="http://www.w3.org/2000/svg"
   xmlns="http://www.w3.org/2000/svg"
   xmlns:sodipodi="http://sodipodi.sourceforge.net/DTD/sodipodi-0.dtd"
   xmlns:inkscape="http://www.inkscape.org/namespaces/inkscape"
   version="1.1"
   id="svg2"
   xml:space="preserve"
   width="4266.6665"
   height="2666.6667"
   viewBox="0 0 4266.6665 2666.6667"
   sodipodi:docname="feature.svg"
   inkscape:version="0.92.5 (2060ec1f9f, 2020-04-08)"><metadata
     id="metadata8"><rdf:RDF><cc:Work
         rdf:about=""><dc:format>image/svg+xml</dc:format><dc:type
           rdf:resource="http://purl.org/dc/dcmitype/StillImage" /><dc:title></dc:title></cc:Work></rdf:RDF></metadata><defs
     id="defs6" /><sodipodi:namedview
     pagecolor="#ffffff"
     bordercolor="#666666"
     borderopacity="1"
     objecttolerance="10"
     gridtolerance="10"
     guidetolerance="10"
     inkscape:pageopacity="0"
     inkscape:pageshadow="2"
     inkscape:window-width="1366"
     inkscape:window-height="668"
     id="namedview4"
     showgrid="false"
     inkscape:zoom="0.085312503"
     inkscape:cx="2133.3333"
     inkscape:cy="1333.3334"
     inkscape:window-x="0"
     inkscape:window-y="27"
     inkscape:window-maximized="1"
     inkscape:current-layer="g10" /><g
     id="g10"
     inkscape:groupmode="layer"
     inkscape:label="ink_ext_XXXXXX"
     transform="matrix(1.3333333,0,0,-1.3333333,0,2666.6667)"><g
       transform="scale(0.18474)"
       id="g18"><path
         inkscape:connector-curvature="0"
         id="path20"
         style="fill:#ebf3fa;fill-opacity:1;fill-rule:nonzero;stroke:none"
         d="m 1869.04,1584.12 c 0.7,-0.54 13648.96,1.68 13648.96,1.68 449.3,958.43 448.6,1426.71 499.7,1976.07 C 16300,6598.28 14013,7065.1 13343,7191.71 11291.6,7579.4 12225.2,9497.61 6879.46,9137.72 6389.47,9104.74 5234.26,8838.43 4836.13,8665.91 4556.89,8545 3504.82,8003.98 3196.15,7088.78 3098.65,6799.93 3075.27,6473.83 3173.56,6111.87 3521.47,4831.06 2614.45,4904.68 1951.67,4294.31 1067.06,3479.76 1159.53,2147.56 1869.04,1584.12" /></g><g
       transform="scale(0.113572)"
       id="g22"><path
         inkscape:connector-curvature="0"
         id="path24"
         style="fill:#b0d4ff;fill-opacity:1;fill-rule:nonzero;stroke:none"
         d="m 16264.6,2578.09 h 3 c 18,0 32.4,14.79 32,32.76 l -48.5,2099.1 -142.6,16.64 121.7,-2115.92 c 1,-18.31 16.1,-32.58 34.4,-32.58" /></g><g
       transform="scale(0.119365)"
       id="g26"><path
         inkscape:connector-curvature="0"
         id="path28"
         style="fill:#95c0f4;fill-opacity:1;fill-rule:nonzero;stroke:none"
         d="m 16266.3,2452.98 h 2.9 c 17.1,0 30.8,14.07 30.4,31.16 l -46.1,1997.24 -135.7,15.83 115.7,-2013.23 c 1,-17.43 15.4,-31 32.8,-31" /></g><g
       transform="scale(0.104222)"
       id="g30"><path
         inkscape:connector-curvature="0"
         id="path32"
         style="fill:#b0d4ff;fill-opacity:1;fill-rule:nonzero;stroke:none"
         d="m 16129.8,2809.39 h -3.3 c -19.5,0 -35.2,16.12 -34.8,35.69 l 52.8,2287.42 155.5,18.14 -132.6,-2305.75 c -1.2,-19.96 -17.7,-35.5 -37.6,-35.5" /></g><g
       transform="scale(0.119777)"
       id="g34"><path
         inkscape:connector-curvature="0"
         id="path36"
         style="fill:#b0d4ff;fill-opacity:1;fill-rule:nonzero;stroke:none"
         d="m 16300,4589.46 v 1363.87 c 0,240.03 -194.5,434.56 -434.5,434.56 h -982.7 c -240,0 -434.6,-194.53 -434.6,-434.56 V 4537.28 l 1851.8,52.18" /></g><g
       transform="scale(0.119777)"
       id="g38"><path
         inkscape:connector-curvature="0"
         id="path40"
         style="fill:#95c0f4;fill-opacity:1;fill-rule:nonzero;stroke:none"
         d="m 14272.2,4374.14 h 1897.4 c 72,0 130.4,58.36 130.4,130.41 v 84.91 h -2027.8 v -215.32" /></g><g
       transform="scale(0.114462)"
       id="g42"><path
         inkscape:connector-curvature="0"
         id="path44"
         style="fill:#cae5ff;fill-opacity:1;fill-rule:nonzero;stroke:none"
         d="M 14696.9,4577.24 H 16199 c 55.8,0 101,45.17 101,100.91 v 23.41 c 0,55.74 -45.2,101 -101,101 h -1502.1 c -55.7,0 -100.9,-45.26 -100.9,-101 v -23.41 c 0,-55.74 45.2,-100.91 100.9,-100.91" /></g><g
       transform="scale(0.12751)"
       id="g46"><path
         inkscape:connector-curvature="0"
         id="path48"
         style="fill:#95c0f4;fill-opacity:1;fill-rule:nonzero;stroke:none"
         d="M 16300,6460.65 H 10978.6 V 11054.3 H 16300 V 6460.65" /></g><g
       transform="scale(0.126701)"
       id="g50"><path
         inkscape:connector-curvature="0"
         id="path52"
         style="fill:#dfedfb;fill-opacity:1;fill-rule:nonzero;stroke:none"
         d="M 16300,6594.13 H 11150.7 V 11047.9 H 16300 V 6594.13" /></g><g
       transform="scale(0.100664)"
       id="g54"><path
         inkscape:connector-curvature="0"
         id="path56"
         style="fill:#ffffff;fill-opacity:1;fill-rule:nonzero;stroke:none"
         d="m 16300,11466.4 h -1420.2 v 1773.4 l 240.8,217.1 H 16300 v -1990.5" /></g><path
       inkscape:connector-curvature="0"
       id="path58"
       style="fill:#b0d4ff;fill-opacity:1;fill-rule:nonzero;stroke:none;stroke-width:0.1"
       d="m 1497.87,1332.78 h 23.46 l 0.78,21.85 z" /><path
       inkscape:connector-curvature="0"
       id="path60"
       style="fill:#b0d4ff;fill-opacity:1;fill-rule:nonzero;stroke:none;stroke-width:0.1"
       d="m 1592.24,1335.08 h -45.78 v 2.18 h 45.78 v -2.18" /><path
       inkscape:connector-curvature="0"
       id="path62"
       style="fill:#b0d4ff;fill-opacity:1;fill-rule:nonzero;stroke:none;stroke-width:0.1"
       d="m 1603.01,1328.54 h -67.32 v 2.18 h 67.32 v -2.18" /><path
       inkscape:connector-curvature="0"
       id="path64"
       style="fill:#b0d4ff;fill-opacity:1;fill-rule:nonzero;stroke:none;stroke-width:0.1"
       d="m 1626.58,1285.92 h -111.79 v 2.8 h 111.79 v -2.8" /><path
       inkscape:connector-curvature="0"
       id="path66"
       style="fill:#b0d4ff;fill-opacity:1;fill-rule:nonzero;stroke:none;stroke-width:0.1"
       d="m 1626.58,1277.4 h -111.79 v 2.81 h 111.79 v -2.81" /><path
       inkscape:connector-curvature="0"
       id="path68"
       style="fill:#b0d4ff;fill-opacity:1;fill-rule:nonzero;stroke:none;stroke-width:0.1"
       d="m 1626.58,1268.89 h -111.79 v 2.8 h 111.79 v -2.8" /><path
       inkscape:connector-curvature="0"
       id="path70"
       style="fill:#b0d4ff;fill-opacity:1;fill-rule:nonzero;stroke:none;stroke-width:0.1"
       d="m 1626.58,1260.38 h -111.79 v 2.8 h 111.79 v -2.8" /><path
       inkscape:connector-curvature="0"
       id="path72"
       style="fill:#b0d4ff;fill-opacity:1;fill-rule:nonzero;stroke:none;stroke-width:0.1"
       d="m 1626.58,1169.3 h -111.79 v 2.8 h 111.79 v -2.8" /><g
       transform="scale(0.110792)"
       id="g74"><path
         inkscape:connector-curvature="0"
         id="path76"
         style="fill:#ffffff;fill-opacity:1;fill-rule:nonzero;stroke:none"
         d="m 16300,8182.72 h -1290.4 v 1611.32 l 218.8,197.23 H 16300 V 8182.72" /></g><g
       transform="scale(0.103509)"
       id="g78"><path
         inkscape:connector-curvature="0"
         id="path80"
         style="fill:#b0d4ff;fill-opacity:1;fill-rule:nonzero;stroke:none"
         d="m 16065.7,10483.2 h 226.8 l 7.5,211.1 -234.3,-211.1" /></g><g
       transform="scale(0.10781)"
       id="g82"><path
         inkscape:connector-curvature="0"
         id="path84"
         style="fill:#b0d4ff;fill-opacity:1;fill-rule:nonzero;stroke:none"
         d="m 16300,10086.2 h -424.5 v 20.2 h 424.5 v -20.2" /></g><g
       transform="scale(0.108472)"
       id="g86"><path
         inkscape:connector-curvature="0"
         id="path88"
         style="fill:#b0d4ff;fill-opacity:1;fill-rule:nonzero;stroke:none"
         d="m 16300,9964.42 h -620.7 v 20.09 h 620.7 v -20.09" /></g><g
       transform="scale(0.109918)"
       id="g90"><path
         inkscape:connector-curvature="0"
         id="path92"
         style="fill:#b0d4ff;fill-opacity:1;fill-rule:nonzero;stroke:none"
         d="m 16300,9445.56 h -1017 v 25.5 h 1017 v -25.5" /></g><g
       transform="scale(0.109918)"
       id="g94"><path
         inkscape:connector-curvature="0"
         id="path96"
         style="fill:#b0d4ff;fill-opacity:1;fill-rule:nonzero;stroke:none"
         d="m 16300,9368.13 h -1017 v 25.5 h 1017 v -25.5" /></g><g
       transform="scale(0.109918)"
       id="g98"><path
         inkscape:connector-curvature="0"
         id="path100"
         style="fill:#b0d4ff;fill-opacity:1;fill-rule:nonzero;stroke:none"
         d="m 16300,9290.69 h -1017 v 25.5 h 1017 v -25.5" /></g><g
       transform="scale(0.109918)"
       id="g102"><path
         inkscape:connector-curvature="0"
         id="path104"
         style="fill:#b0d4ff;fill-opacity:1;fill-rule:nonzero;stroke:none"
         d="m 16300,9213.26 h -1017 v 25.49 h 1017 v -25.49" /></g><g
       transform="scale(0.109918)"
       id="g106"><path
         inkscape:connector-curvature="0"
         id="path108"
         style="fill:#b0d4ff;fill-opacity:1;fill-rule:nonzero;stroke:none"
         d="m 16300,8974.98 h -1017 v 25.47 h 1017 v -25.47" /></g><g
       transform="scale(0.109918)"
       id="g110"><path
         inkscape:connector-curvature="0"
         id="path112"
         style="fill:#b0d4ff;fill-opacity:1;fill-rule:nonzero;stroke:none"
         d="m 16300,8897.56 h -1017 v 25.47 h 1017 v -25.47" /></g><g
       transform="scale(0.109918)"
       id="g114"><path
         inkscape:connector-curvature="0"
         id="path116"
         style="fill:#b0d4ff;fill-opacity:1;fill-rule:nonzero;stroke:none"
         d="m 16300,8807.76 h -1017 v 25.48 h 1017 v -25.48" /></g><g
       transform="scale(0.115741)"
       id="g118"><path
         inkscape:connector-curvature="0"
         id="path120"
         style="fill:#b0d4ff;fill-opacity:1;fill-rule:nonzero;stroke:none"
         d="m 15618,11704 h 682 v -601.3 h -682 v 601.3" /></g><g
       transform="scale(0.113532)"
       id="g122"><path
         inkscape:connector-curvature="0"
         id="path124"
         style="fill:#ffa412;fill-opacity:1;fill-rule:nonzero;stroke:none"
         d="m 16239.1,11858.8 c 0,16.8 13.6,30.4 30.4,30.4 16.8,0 30.5,-13.6 30.5,-30.4 0,-16.9 -13.7,-30.5 -30.5,-30.5 -16.8,0 -30.4,13.6 -30.4,30.5" /></g><g
       transform="scale(0.115884)"
       id="g126"><path
         inkscape:connector-curvature="0"
         id="path128"
         style="fill:#ffffff;fill-opacity:1;fill-rule:nonzero;stroke:none"
         d="m 15578.6,10852.8 679.5,47.5 41.9,-599.1 -679.6,-47.5 -41.8,599.1" /></g><g
       transform="scale(0.113445)"
       id="g130"><path
         inkscape:connector-curvature="0"
         id="path132"
         style="fill:#b0d4ff;fill-opacity:1;fill-rule:nonzero;stroke:none"
         d="m 16238,10997.5 c -1.1,16.8 11.5,31.3 28.3,32.5 16.8,1.2 31.3,-11.5 32.5,-28.3 1.2,-16.8 -11.5,-31.3 -28.2,-32.5 -16.9,-1.2 -31.4,11.5 -32.6,28.3" /></g><path
       inkscape:connector-curvature="0"
       id="path134"
       style="fill:#ffffff;fill-opacity:1;fill-rule:nonzero;stroke:none;stroke-width:0.1"
       d="m 1542.98,1001.27 78.76,5.5 4.84,-69.43 -78.75,-5.5 -4.85,69.43" /><path
       inkscape:connector-curvature="0"
       id="path136"
       style="fill:#b0d4ff;fill-opacity:1;fill-rule:nonzero;stroke:none;stroke-width:0.1"
       d="m 1579.79,991.21 c -0.13,1.9 1.3,3.55 3.21,3.69 1.9,0.13 3.55,-1.31 3.69,-3.21 0.13,-1.91 -1.31,-3.56 -3.21,-3.69 -1.91,-0.13 -3.56,1.3 -3.69,3.21" /><path
       inkscape:connector-curvature="0"
       id="path138"
       style="fill:#ffffff;fill-opacity:1;fill-rule:nonzero;stroke:none;stroke-width:0.1"
       d="m 1443.71,956.01 78.94,0.81 0.71,-69.59 -78.93,-0.81 -0.72,69.59" /><path
       inkscape:connector-curvature="0"
       id="path140"
       style="fill:#b0d4ff;fill-opacity:1;fill-rule:nonzero;stroke:none;stroke-width:0.1"
       d="m 1479.85,943.78 c -0.01,1.91 1.52,3.47 3.43,3.49 1.9,0.02 3.47,-1.51 3.49,-3.42 0.02,-1.91 -1.51,-3.47 -3.42,-3.49 -1.91,-0.02 -3.48,1.51 -3.5,3.42" /><g
       transform="scale(0.122919)"
       id="g142"><path
         inkscape:connector-curvature="0"
         id="path144"
         style="fill:#eef6ff;fill-opacity:1;fill-rule:nonzero;stroke:none"
         d="m 15667.8,9934.42 632.2,-112.99 -99.6,-557.36 -632.2,112.98 99.6,557.37" /></g><g
       transform="scale(0.120633)"
       id="g146"><path
         inkscape:connector-curvature="0"
         id="path148"
         style="fill:#78acea;fill-opacity:1;fill-rule:nonzero;stroke:none"
         d="m 16248.5,9992.55 c 2.4,13.55 15.4,22.55 29,20.15 13.5,-2.4 22.5,-15.38 20.1,-28.92 -2.4,-13.54 -15.4,-22.56 -28.9,-20.14 -13.5,2.42 -22.6,15.36 -20.2,28.91" /></g><g
       transform="scale(0.108501)"
       id="g150"><path
         inkscape:connector-curvature="0"
         id="path152"
         style="fill:#eef6ff;fill-opacity:1;fill-rule:nonzero;stroke:none"
         d="m 15507.7,11576.4 723.3,78.3 69,-637.7 -723.3,-78.3 -69,637.7" /></g><g
       transform="scale(0.105891)"
       id="g154"><path
         inkscape:connector-curvature="0"
         id="path156"
         style="fill:#78acea;fill-opacity:1;fill-rule:nonzero;stroke:none"
         d="m 16241.9,11810.3 c -1.7,15.6 9.6,29.6 25.1,31.3 15.6,1.7 29.6,-9.6 31.3,-25.2 1.7,-15.6 -9.5,-29.6 -25.1,-31.2 -15.6,-1.7 -29.7,9.5 -31.3,25.1" /></g><path
       inkscape:connector-curvature="0"
       id="path158"
       style="fill:#bae8e3;fill-opacity:1;fill-rule:nonzero;stroke:none;stroke-width:0.1"
       d="m 1478.97,1083.57 77.2,16.46 14.52,-68.06 -77.21,-16.47 -14.51,68.07" /><path
       inkscape:connector-curvature="0"
       id="path160"
       style="fill:#ffa412;fill-opacity:1;fill-rule:nonzero;stroke:none;stroke-width:0.1"
       d="m 1517.89,1080.08 c -1.39,0.91 -1.79,2.77 -0.88,4.16 0.9,1.39 2.76,1.79 4.16,0.89 1.39,-0.9 1.78,-2.77 0.88,-4.16 -0.9,-1.39 -2.76,-1.79 -4.16,-0.89" /><g
       transform="scale(0.108169)"
       id="g162"><path
         inkscape:connector-curvature="0"
         id="path164"
         style="fill:#ffffff;fill-opacity:1;fill-rule:nonzero;stroke:none"
         d="m 16300,11879.9 h -694.6 v 466.7 l 192.3,176.7 h 502.3 v -643.4" /></g><g
       transform="scale(0.104836)"
       id="g166"><path
         inkscape:connector-curvature="0"
         id="path168"
         style="fill:#b0d4ff;fill-opacity:1;fill-rule:nonzero;stroke:none"
         d="m 16097.8,12739.2 h 195.7 l 6.5,182.3 -202.2,-182.3" /></g><g
       transform="scale(0.106184)"
       id="g170"><path
         inkscape:connector-curvature="0"
         id="path172"
         style="fill:#b0d4ff;fill-opacity:1;fill-rule:nonzero;stroke:none"
         d="m 16253.5,12696.8 c 0,12.8 10.4,23.2 23.2,23.2 12.9,0 23.3,-10.4 23.3,-23.2 0,-12.9 -10.4,-23.3 -23.3,-23.3 -12.8,0 -23.2,10.4 -23.2,23.3" /></g><g
       transform="scale(0.121637)"
       id="g174"><path
         inkscape:connector-curvature="0"
         id="path176"
         style="fill:#ffffff;fill-opacity:1;fill-rule:nonzero;stroke:none"
         d="m 16300,7167.04 h -617.7 v 415.08 l 171,157.11 h 446.7 v -572.19" /></g><g
       transform="scale(0.118304)"
       id="g178"><path
         inkscape:connector-curvature="0"
         id="path180"
         style="fill:#b0d4ff;fill-opacity:1;fill-rule:nonzero;stroke:none"
         d="m 16120.8,7795.78 h 173.5 l 5.7,161.54 -179.2,-161.54" /></g><g
       transform="scale(0.119652)"
       id="g182"><path
         inkscape:connector-curvature="0"
         id="path184"
         style="fill:#b0d4ff;fill-opacity:1;fill-rule:nonzero;stroke:none"
         d="m 16258.7,7813.82 c 0,11.36 9.3,20.64 20.7,20.64 11.4,0 20.6,-9.28 20.6,-20.64 0,-11.37 -9.2,-20.65 -20.6,-20.65 -11.4,0 -20.7,9.28 -20.7,20.65" /></g><g
       transform="scale(0.12374)"
       id="g186"><path
         inkscape:connector-curvature="0"
         id="path188"
         style="fill:#ffffff;fill-opacity:1;fill-rule:nonzero;stroke:none"
         d="m 16300,7854.94 h -607.2 v 407.97 l 168.1,154.47 h 439.1 v -562.44" /></g><g
       transform="scale(0.120407)"
       id="g190"><path
         inkscape:connector-curvature="0"
         id="path192"
         style="fill:#b0d4ff;fill-opacity:1;fill-rule:nonzero;stroke:none"
         d="m 16123.8,8491.65 h 170.6 l 5.6,158.74 -176.2,-158.74" /></g><g
       transform="scale(0.121755)"
       id="g194"><path
         inkscape:connector-curvature="0"
         id="path196"
         style="fill:#b0d4ff;fill-opacity:1;fill-rule:nonzero;stroke:none"
         d="m 16259.4,8501.7 c 0,11.21 9.1,20.29 20.3,20.29 11.2,0 20.3,-9.08 20.3,-20.29 0,-11.2 -9.1,-20.29 -20.3,-20.29 -11.2,0 -20.3,9.09 -20.3,20.29" /></g><g
       transform="scale(0.117657)"
       id="g198"><path
         inkscape:connector-curvature="0"
         id="path200"
         style="fill:#bae8e3;fill-opacity:1;fill-rule:nonzero;stroke:none"
         d="m 16300,8261.04 h -638.6 v 429.06 l 176.7,162.45 h 461.9 v -591.51" /></g><g
       transform="scale(0.114323)"
       id="g202"><path
         inkscape:connector-curvature="0"
         id="path204"
         style="fill:#a1d6ce;fill-opacity:1;fill-rule:nonzero;stroke:none"
         d="m 16114.6,8943.51 h 179.5 l 5.9,167.19 -185.4,-167.19" /></g><g
       transform="scale(0.115672)"
       id="g206"><path
         inkscape:connector-curvature="0"
         id="path208"
         style="fill:#f99746;fill-opacity:1;fill-rule:nonzero;stroke:none"
         d="m 16257.2,8948.77 c 0,11.8 9.6,21.36 21.4,21.36 11.8,0 21.4,-9.56 21.4,-21.36 0,-11.79 -9.6,-21.35 -21.4,-21.35 -11.8,0 -21.4,9.56 -21.4,21.35" /></g><g
       transform="scale(0.125041)"
       id="g210"><path
         inkscape:connector-curvature="0"
         id="path212"
         style="fill:#bae8e3;fill-opacity:1;fill-rule:nonzero;stroke:none"
         d="m 16300,10416.2 h -600.9 v 403.8 l 166.3,152.8 h 434.6 v -556.6" /></g><g
       transform="scale(0.121707)"
       id="g214"><path
         inkscape:connector-curvature="0"
         id="path216"
         style="fill:#a1d6ce;fill-opacity:1;fill-rule:nonzero;stroke:none"
         d="m 16125.8,11116.3 h 168.6 l 5.6,157.1 -174.2,-157.1" /></g><g
       transform="scale(0.123056)"
       id="g218"><path
         inkscape:connector-curvature="0"
         id="path220"
         style="fill:#f99746;fill-opacity:1;fill-rule:nonzero;stroke:none"
         d="m 16259.9,11097.5 c 0,11.1 9,20.1 20,20.1 11.2,0 20.1,-9 20.1,-20.1 0,-11.1 -8.9,-20 -20.1,-20 -11,0 -20,8.9 -20,20" /></g><path
       inkscape:connector-curvature="0"
       id="path222"
       style="fill:#c0d8fb;fill-opacity:1;fill-rule:nonzero;stroke:none;stroke-width:0.1"
       d="m 1295.15,1423.71 h -142.92 c -6.56,0 -11.93,5.37 -11.93,11.93 v 137.94 c 0,6.56 5.37,11.93 11.93,11.93 h 142.92 c 6.56,0 11.93,-5.37 11.93,-11.93 v -137.94 c 0,-6.56 -5.37,-11.93 -11.93,-11.93" /><path
       inkscape:connector-curvature="0"
       id="path224"
       style="fill:#dfebfd;fill-opacity:1;fill-rule:nonzero;stroke:none;stroke-width:0.1"
       d="m 1288.96,1430.72 h -130.54 c -5.99,0 -10.89,4.9 -10.89,10.89 v 125.99 c 0,6 4.9,10.9 10.89,10.9 h 130.54 c 5.99,0 10.9,-4.9 10.9,-10.9 v -125.99 c 0,-5.99 -4.91,-10.89 -10.9,-10.89" /><path
       inkscape:connector-curvature="0"
       id="path226"
       style="fill:#b7d3f3;fill-opacity:1;fill-rule:nonzero;stroke:none;stroke-width:0.1"
       d="m 1220.24,1563.73 c 0,1.91 1.54,3.46 3.45,3.46 1.91,0 3.46,-1.55 3.46,-3.46 0,-1.9 -1.55,-3.45 -3.46,-3.45 -1.91,0 -3.45,1.55 -3.45,3.45" /><path
       inkscape:connector-curvature="0"
       id="path228"
       style="fill:#b7d3f3;fill-opacity:1;fill-rule:nonzero;stroke:none;stroke-width:0.1"
       d="m 1248.11,1558.85 c 0.93,1.67 3.03,2.27 4.7,1.34 1.67,-0.93 2.27,-3.03 1.34,-4.7 -0.92,-1.66 -3.03,-2.26 -4.7,-1.34 -1.66,0.93 -2.26,3.03 -1.34,4.7" /><path
       inkscape:connector-curvature="0"
       id="path230"
       style="fill:#b7d3f3;fill-opacity:1;fill-rule:nonzero;stroke:none;stroke-width:0.1"
       d="m 1272,1539.88 c 1.6,1.03 3.74,0.57 4.77,-1.04 1.04,-1.6 0.57,-3.74 -1.03,-4.77 -1.6,-1.03 -3.74,-0.57 -4.77,1.03 -1.04,1.6 -0.58,3.74 1.03,4.78" /><path
       inkscape:connector-curvature="0"
       id="path232"
       style="fill:#b7d3f3;fill-opacity:1;fill-rule:nonzero;stroke:none;stroke-width:0.1"
       d="m 1283.83,1510.51 c 1.9,0 3.45,-1.55 3.45,-3.46 0,-1.91 -1.55,-3.45 -3.45,-3.45 -1.91,0 -3.46,1.54 -3.46,3.45 0,1.91 1.55,3.46 3.46,3.46" /><path
       inkscape:connector-curvature="0"
       id="path234"
       style="fill:#b7d3f3;fill-opacity:1;fill-rule:nonzero;stroke:none;stroke-width:0.1"
       d="m 1277.79,1476.43 c 1.34,-1.35 1.34,-3.54 0,-4.89 -1.35,-1.35 -3.54,-1.35 -4.89,0 -1.35,1.35 -1.35,3.54 0,4.89 1.35,1.34 3.54,1.34 4.89,0" /><path
       inkscape:connector-curvature="0"
       id="path236"
       style="fill:#b7d3f3;fill-opacity:1;fill-rule:nonzero;stroke:none;stroke-width:0.1"
       d="m 1256.09,1454.67 c 1.35,-1.34 1.35,-3.53 0,-4.88 -1.35,-1.35 -3.54,-1.35 -4.88,0 -1.35,1.35 -1.35,3.54 0,4.88 1.34,1.35 3.53,1.35 4.88,0" /><path
       inkscape:connector-curvature="0"
       id="path238"
       style="fill:#b7d3f3;fill-opacity:1;fill-rule:nonzero;stroke:none;stroke-width:0.1"
       d="m 1220.24,1443.46 c 0,1.91 1.54,3.46 3.45,3.46 1.91,0 3.46,-1.55 3.46,-3.46 0,-1.9 -1.55,-3.45 -3.46,-3.45 -1.91,0 -3.45,1.55 -3.45,3.45" /><path
       inkscape:connector-curvature="0"
       id="path240"
       style="fill:#b7d3f3;fill-opacity:1;fill-rule:nonzero;stroke:none;stroke-width:0.1"
       d="m 1199.16,1558.85 c -0.93,1.67 -3.03,2.27 -4.7,1.34 -1.67,-0.93 -2.27,-3.03 -1.34,-4.7 0.93,-1.66 3.03,-2.26 4.7,-1.34 1.66,0.93 2.27,3.03 1.34,4.7" /><path
       inkscape:connector-curvature="0"
       id="path242"
       style="fill:#b7d3f3;fill-opacity:1;fill-rule:nonzero;stroke:none;stroke-width:0.1"
       d="m 1175.28,1539.88 c -1.61,1.03 -3.75,0.57 -4.78,-1.04 -1.03,-1.6 -0.57,-3.74 1.03,-4.77 1.6,-1.03 3.74,-0.57 4.78,1.03 1.03,1.6 0.57,3.74 -1.03,4.78" /><path
       inkscape:connector-curvature="0"
       id="path244"
       style="fill:#b7d3f3;fill-opacity:1;fill-rule:nonzero;stroke:none;stroke-width:0.1"
       d="m 1163.45,1510.51 c -1.91,0 -3.46,-1.55 -3.46,-3.46 0,-1.91 1.55,-3.45 3.46,-3.45 1.9,0 3.45,1.54 3.45,3.45 0,1.91 -1.55,3.46 -3.45,3.46" /><path
       inkscape:connector-curvature="0"
       id="path246"
       style="fill:#b7d3f3;fill-opacity:1;fill-rule:nonzero;stroke:none;stroke-width:0.1"
       d="m 1169.49,1476.43 c -1.35,-1.35 -1.35,-3.54 0,-4.89 1.35,-1.35 3.53,-1.35 4.88,0 1.35,1.35 1.35,3.54 0,4.89 -1.35,1.34 -3.53,1.34 -4.88,0" /><path
       inkscape:connector-curvature="0"
       id="path248"
       style="fill:#b7d3f3;fill-opacity:1;fill-rule:nonzero;stroke:none;stroke-width:0.1"
       d="m 1191.18,1454.67 c -1.35,-1.34 -1.35,-3.53 0,-4.88 1.35,-1.35 3.54,-1.35 4.89,0 1.35,1.35 1.35,3.54 0,4.88 -1.35,1.35 -3.54,1.35 -4.89,0" /><path
       inkscape:connector-curvature="0"
       id="path250"
       style="fill:#b7d3f3;fill-opacity:1;fill-rule:nonzero;stroke:none;stroke-width:0.1"
       d="m 1222.76,1507.05 c 0,1.91 1.55,3.46 3.45,3.46 1.91,0 3.46,-1.55 3.46,-3.46 0,-1.91 -1.55,-3.45 -3.46,-3.45 -1.9,0 -3.45,1.54 -3.45,3.45" /><path
       inkscape:connector-curvature="0"
       id="path252"
       style="fill:#b7d3f3;fill-opacity:1;fill-rule:nonzero;stroke:none;stroke-width:0.1"
       d="m 1226.69,1507.05 h -0.95 v 43.16 h 0.95 v -43.16" /><path
       inkscape:connector-curvature="0"
       id="path254"
       style="fill:#b7d3f3;fill-opacity:1;fill-rule:nonzero;stroke:none;stroke-width:0.1"
       d="m 1226.65,1506 -1.75,2.23 22.89,17.96 1.74,-2.23 -22.88,-17.96" /><g
       transform="scale(0.134407)"
       id="g256"><path
         inkscape:connector-curvature="0"
         id="path258"
         style="fill:#ffb27d;fill-opacity:1;fill-rule:nonzero;stroke:none"
         d="m 16182.1,2241.92 c -5.1,-69.05 -102.5,-69.79 -213.1,-56.99 -110.6,12.87 -81.2,-15.11 -236,-17.27 -154.8,-2.15 -208.1,49.03 -215.6,71.13 -6.7,19.64 67.8,36.16 147.6,55.58 10,2.38 20.2,4.91 30.2,7.44 89.9,22.91 149.5,90.17 226.4,148.95 72.9,55.73 167,257.2 167,257.2 l 211.4,9.6 c 0,0 -89.1,-180.65 -122.5,-258.54 -19.7,-45.76 -11.3,-102.08 -2.8,-145.23 4.6,-23.51 9.2,-47.55 7.4,-71.87" /></g><g
       transform="scale(0.13345)"
       id="g260"><path
         inkscape:connector-curvature="0"
         id="path262"
         style="fill:#233862;fill-opacity:1;fill-rule:nonzero;stroke:none"
         d="m 16083.6,2200.61 c -111.4,12.96 -81.8,-15.22 -237.7,-17.39 -155.9,-2.17 -209.6,49.38 -217.2,71.64 -6.7,19.78 68.4,36.41 148.7,55.97 l 1,-1.49 c 0,0 100.4,-53.88 228.8,-40.99 104.6,10.49 211.4,54.17 283.6,62.04 4.6,-23.68 9.2,-47.88 7.4,-72.39 -5.1,-69.53 -103.3,-70.28 -214.6,-57.39" /></g><g
       transform="scale(0.145493)"
       id="g264"><path
         inkscape:connector-curvature="0"
         id="path266"
         style="fill:#ffb27d;fill-opacity:1;fill-rule:nonzero;stroke:none"
         d="m 16298.3,2057.9 c -4.6,-63.86 -94.6,-64.61 -196.7,-52.86 -102.2,11.75 -75,-14.09 -218,-16.22 -143,-2.13 -192.4,45.09 -199.3,65.5 -6.2,18.15 62.7,33.48 136.4,51.48 9.2,2.27 18.5,4.61 27.8,6.95 83.1,21.23 138,83.43 209.1,137.8 67.3,51.55 0,356.44 0,356.44 l 214.9,20.9 c 0,0 -10.3,-256.71 -10.2,-373.42 0.1,-46.05 21.3,-90.32 29.2,-130.25 4.2,-21.72 8.5,-43.85 6.8,-66.32" /></g><g
       transform="scale(0.145493)"
       id="g268"><path
         inkscape:connector-curvature="0"
         id="path270"
         style="fill:#233862;fill-opacity:1;fill-rule:nonzero;stroke:none"
         d="m 16101.6,2005.04 c -102.2,11.75 -75,-14.09 -218,-16.22 -143,-2.13 -192.4,45.09 -199.3,65.5 -6.2,18.15 62.7,33.48 136.4,51.48 l 0.8,-1.31 c 0,0 92.2,-49.34 209.9,-37.38 96,9.69 193.9,49.9 260.1,57.11 4.2,-21.72 8.5,-43.85 6.8,-66.32 -4.6,-63.86 -94.6,-64.61 -196.7,-52.86" /></g><g
       transform="scale(0.151208)"
       id="g272"><path
         inkscape:connector-curvature="0"
         id="path274"
         style="fill:#a9453d;fill-opacity:1;fill-rule:nonzero;stroke:none"
         d="m 15079,7050.8 c -35.6,146.4 16,214.58 62.5,250.88 22.1,53.88 47.3,92.72 73,107.36 47.1,26.71 103.3,29.62 142.8,27.3 -10.2,10.46 -30.1,14.28 -30.1,14.28 24.4,3.63 78.9,-20.6 78.9,-20.6 339.8,130.91 393.1,-369.33 386,-485.55 -7.1,-116.21 -6.2,-253.08 170.6,-344.62 337.3,-174.73 -112.1,-833.16 -112.1,-833.16 8.6,93.91 -424.7,589.52 -650.8,737.99 -55,81.02 -74.6,224.14 -76.1,235.42 9.6,-113.49 28.9,-177.15 46.3,-213 -103,94.84 -118.3,322.57 -91,523.7" /></g><g
       transform="scale(0.144105)"
       id="g276"><path
         inkscape:connector-curvature="0"
         id="path278"
         style="fill:#ffb27d;fill-opacity:1;fill-rule:nonzero;stroke:none"
         d="m 15963,6817.53 c -1.2,-0.55 114.6,-60.58 201.6,-36.77 81.9,22.27 135.4,128.44 134.3,128.72 -34.7,6.87 -44.7,54.52 -43.9,259.28 l -15.7,-3.09 -263.6,-52.19 c 0,0 6,-82.95 6.2,-161.09 0.1,-65.6 -3.8,-127.85 -18.9,-134.86" /></g><g
       transform="scale(0.143568)"
       id="g280"><path
         inkscape:connector-curvature="0"
         id="path282"
         style="fill:#ed975d;fill-opacity:1;fill-rule:nonzero;stroke:none"
         d="m 16035.5,7140.08 c 0,0 5.9,-83.26 6.2,-161.69 148,4.17 226.3,139.22 258.3,214.08 l -264.5,-52.39" /></g><g
       transform="scale(0.145177)"
       id="g284"><path
         inkscape:connector-curvature="0"
         id="path286"
         style="fill:#2a4e96;fill-opacity:1;fill-rule:nonzero;stroke:none"
         d="m 14793.2,2403.41 c -12.8,-40.16 16,-81.63 58.2,-83.63 l 102.2,-4.75 108.1,-3.3 c 27.1,-0.83 52.9,10.95 70,31.96 86.4,105.87 352.1,458.82 513.2,971.64 4.6,14.39 9.3,28.93 14.4,43.67 106.5,310.38 327.2,699.97 443.4,1052.57 18.6,56.21 35.2,109.04 50,159.12 4.9,15.98 9.5,31.75 13.9,47.25 85.7,297.77 110.5,493.26 133.4,702.11 l -839.7,-6.68 c 0,0 -176.8,-1374.05 -667.1,-2909.96" /></g><g
       transform="scale(0.148382)"
       id="g288"><path
         inkscape:connector-curvature="0"
         id="path290"
         style="fill:#ffffff;fill-opacity:1;fill-rule:nonzero;stroke:none"
         d="m 15241.4,5670.69 c 2.1,-390.95 -57.4,-558.69 -57.4,-558.69 0,0 351.8,-178.73 769.9,-47.17 4.9,1.55 346.1,79.45 346.1,79.45 -6.9,15.77 -69.2,279.28 -76,293.77 -88.3,189.58 -155.3,272.67 -165.7,330.97 -19.4,108.77 -19.9,221.39 -10.2,327.53 25.5,281.03 101.3,514.35 101.3,514.35 -113.9,25.95 -220.5,71.5 -339.1,115.92 -27.3,-33.97 -110.6,-69.49 -183,-67.87 -83.3,1.89 -110.3,37.54 -106,76.43 -88.7,-49.4 -159.5,-96.04 -159.5,-96.04 -75.4,-131.01 -228.4,-258.25 -239.4,-459.22 -2.8,-49.4 118.9,-498.51 119,-509.43" /></g><g
       transform="scale(0.14769)"
       id="g292"><path
         inkscape:connector-curvature="0"
         id="path294"
         style="fill:#5f9aa8;fill-opacity:1;fill-rule:nonzero;stroke:none"
         d="m 16022.7,5653.46 c 36.1,-51.06 105.2,-361.44 277.3,-400.5 -88.7,221.27 -156,318.23 -166.5,386.28 -19.5,126.95 -20,258.31 -10.2,382.22 -57.6,100.95 -100.6,170.22 -100.6,170.22 -4.6,16.32 -91.6,285.39 -119.5,44.89 -27.8,-240.64 79.2,-525.97 119.5,-583.11" /></g><g
       transform="scale(0.144291)"
       id="g296"><path
         inkscape:connector-curvature="0"
         id="path298"
         style="fill:#ffb27d;fill-opacity:1;fill-rule:nonzero;stroke:none"
         d="m 15905.9,7030.39 c 0,0 348.5,-5.75 348.7,211.34 0.3,217.1 45.4,362.56 -177.1,375.41 -222.5,12.85 -265.8,-69.94 -283.6,-142.38 -17.6,-72.45 21.3,-437.28 112,-444.37" /></g><g
       transform="scale(0.144917)"
       id="g300"><path
         inkscape:connector-curvature="0"
         id="path302"
         style="fill:#a9453d;fill-opacity:1;fill-rule:nonzero;stroke:none"
         d="m 15850.1,7589.57 c 0,0 95,-253.59 240.8,-291.08 145.8,-37.5 209.1,1.57 209.1,1.57 0,0 -111.9,88.85 -135.1,243.94 0,0 -243.1,166.28 -314.8,45.57" /></g><g
       transform="scale(0.141126)"
       id="g304"><path
         inkscape:connector-curvature="0"
         id="path306"
         style="fill:#a9453d;fill-opacity:1;fill-rule:nonzero;stroke:none"
         d="m 16300,7772.3 c 0,0 -72.8,-58.14 -90.6,-114.66 -17.7,-56.52 -25.7,-172.88 -59.7,-168.92 0,0 -73.5,177 9.2,277.12 87.5,106.18 141.1,6.46 141.1,6.46" /></g><g
       transform="scale(0.137731)"
       id="g308"><path
         inkscape:connector-curvature="0"
         id="path310"
         style="fill:#ffb27d;fill-opacity:1;fill-rule:nonzero;stroke:none"
         d="m 16088.9,5816.84 -172.4,-525.74 98.4,-39.42 285.1,464.45 -211.1,100.71" /></g><g
       transform="scale(0.139877)"
       id="g312"><path
         inkscape:connector-curvature="0"
         id="path314"
         style="fill:#f99746;fill-opacity:1;fill-rule:nonzero;stroke:none"
         d="m 16300,7073.59 c 0,0 -200.2,-79.5 -258.2,-203.32 -57.9,-123.9 -145.7,-954.78 -180.6,-1040.14 -35,-85.29 -61.2,-152.84 -61.2,-152.84 0,0 100.9,-85.08 202.5,-91.3 101.5,-6.29 297.5,1487.6 297.5,1487.6" /></g><g
       transform="scale(0.141294)"
       id="g316"><path
         inkscape:connector-curvature="0"
         id="path318"
         style="fill:#f99746;fill-opacity:1;fill-rule:nonzero;stroke:none"
         d="m 16300,7073.27 c 0,0 -205.9,-508.72 -212,-611.63 -6,-102.98 -24.2,-1683.51 -24.2,-1683.51 0,0 12.1,-72.69 -127.2,-42.4 -139.2,30.22 -175.6,60.51 -175.6,60.51 0,0 133.2,974.99 96.9,1314.15 -36.3,339.15 278.6,892.25 278.6,892.25 l 163.5,70.63" /></g><g
       transform="scale(0.143989)"
       id="g320"><path
         inkscape:connector-curvature="0"
         id="path322"
         style="fill:#1e3d70;fill-opacity:1;fill-rule:nonzero;stroke:none"
         d="m 15077,2334.14 118.4,-3.61 c 21.1,-0.7 41.4,8.47 54.9,24.79 79.6,96.33 357.1,457.12 523.8,987.37 4.5,14.51 9.3,29.17 14.5,44.03 107.3,312.94 329.8,705.75 447,1061.26 18.7,56.67 35.4,109.94 50.4,160.43 4.9,16.11 9.6,32.01 14,47.64 l -124.7,94.59 c 0,0 -374.3,-606.09 -490.1,-1176.55 -100.7,-495.45 -503.8,-1091.68 -608.2,-1239.95" /></g><g
       transform="scale(0.148502)"
       id="g324"><path
         inkscape:connector-curvature="0"
         id="path326"
         style="fill:#2a4e96;fill-opacity:1;fill-rule:nonzero;stroke:none"
         d="m 15671.2,3413.96 c -2,-254.47 10.1,-821.6 41.1,-1098.84 2.8,-25.38 24.2,-44.51 49.8,-44.51 h 85.6 c 36.1,0 63.1,0.27 81.1,0.54 15.5,0.2 28.8,11.38 31.7,26.6 85.2,433.46 146.2,793.53 190.8,1104.7 37.4,260.4 70.5,483.7 96,675.95 25.8,193.4 43.6,355.35 50,492.25 1,21.48 1.8,42.49 2.2,62.83 0.4,20.47 0.5,40.33 0.3,59.66 l -709.3,69.09 c 9,-471.24 81.8,-1191.97 80.7,-1348.27" /></g><g
       transform="scale(0.148477)"
       id="g328"><path
         inkscape:connector-curvature="0"
         id="path330"
         style="fill:#1e3d70;fill-opacity:1;fill-rule:nonzero;stroke:none"
         d="m 15850.4,2270.99 c 32.4,0 57.5,0.2 75.3,0.47 18.8,0.27 34.9,13.74 38.6,32.26 84.6,431.04 145.2,789.41 189.7,1099.29 37.4,260.44 70.5,483.78 96,676.06 25.8,193.43 43.6,355.41 50,492.34 l -260.3,-153.16 c 0,0 166.1,-58.59 102.8,-502.37 -63.4,-443.7 -203.9,-1582.06 -292.1,-1644.89" /></g><g
       transform="scale(0.14992)"
       id="g332"><path
         inkscape:connector-curvature="0"
         id="path334"
         style="fill:#f99746;fill-opacity:1;fill-rule:nonzero;stroke:none"
         d="m 15664.6,4531.68 c 0,0 49.5,-178.77 220.7,-155.95 171.2,22.81 414.7,125.53 414.7,125.53 0,0 -73.2,231.26 -164.2,534.95 -110.1,367.73 -246.4,841.78 -310.7,1140.81 -18,83.77 -30.4,153.75 -34.9,203.91 l -142.1,275.61 c 0,0 -211.8,-475.39 -223.2,-595.25 -11.4,-119.86 239.7,-1529.61 239.7,-1529.61" /></g><g
       transform="scale(0.148748)"
       id="g336"><path
         inkscape:connector-curvature="0"
         id="path338"
         style="fill:#ffb27d;fill-opacity:1;fill-rule:nonzero;stroke:none"
         d="m 15960.3,6127.06 -188.9,581.92 c 0.5,-0.27 238.6,-70.86 358.4,-131.43 0,0 74.9,-96.54 121.2,-319.2 0,0 49,-534.73 -60.3,-730.29 0,0 -345.2,-69.05 -897.4,120.81 v 126.52 c 0,0 604,-31.6 727.7,-45.98 l -60.7,397.65" /></g><g
       transform="scale(0.14841)"
       id="g340"><path
         inkscape:connector-curvature="0"
         id="path342"
         style="fill:#ed7d2b;fill-opacity:1;fill-rule:nonzero;stroke:none"
         d="m 15831.6,5869.26 c 7.8,-196.01 53.9,-576.51 465.2,-780.2 1,-0.54 2.1,-1.14 3.2,-1.61 -111.2,371.47 -249,850.34 -313.9,1152.41 -75.6,-112.86 -158.6,-262.65 -154.5,-370.6" /></g><g
       transform="scale(0.148906)"
       id="g344"><path
         inkscape:connector-curvature="0"
         id="path346"
         style="fill:#f99746;fill-opacity:1;fill-rule:nonzero;stroke:none"
         d="m 15754.8,6701.9 c 0,0 349.8,-24.71 434.1,-212.42 84.3,-187.7 111.1,-812.12 3.8,-996 0,0 -147.6,-42.04 -408.8,6.79 -3.2,0.6 -6.4,1.2 -9.7,1.81 0,0 -83.3,204.02 -8.6,244.25 0,0 220.3,-11.49 197.3,61.31 -23,72.73 -208.1,894.26 -208.1,894.26" /></g><g
       transform="scale(0.141319)"
       id="g348"><path
         inkscape:connector-curvature="0"
         id="path350"
         style="fill:#a9453d;fill-opacity:1;fill-rule:nonzero;stroke:none"
         d="m 15676.1,5996.72 10.8,-34.89 605,188.16 c 0,0 8.1,9.2 4.1,21.44 -4.3,13.44 -14.9,13.51 -14.9,13.51 l -605,-188.22" /></g><g
       transform="scale(0.136004)"
       id="g352"><path
         inkscape:connector-curvature="0"
         id="path354"
         style="fill:#a9453d;fill-opacity:1;fill-rule:nonzero;stroke:none"
         d="m 16243.3,6196.82 45.5,34.26 11.2,-36.25 -56.7,1.99" /></g><g
       transform="scale(0.135591)"
       id="g356"><path
         inkscape:connector-curvature="0"
         id="path358"
         style="fill:#ffb27d;fill-opacity:1;fill-rule:nonzero;stroke:none"
         d="m 16192.7,5389.23 c 0,0 -160,-88.43 -181.1,-155.76 -21,-67.34 -6.5,-208.35 18.8,-206.28 25.5,2.13 63.3,151.55 84.4,162.1 21,10.47 50.5,42.04 50.5,18.88 0,-23.08 -21.1,-65.2 -10.5,-71.54 10.5,-6.27 44.2,58.93 67.3,71.54 23.2,12.69 32.9,116.75 55.4,144.7 22.5,27.95 -84.8,36.36 -84.8,36.36" /></g><g
       transform="scale(0.140658)"
       id="g360"><path
         inkscape:connector-curvature="0"
         id="path362"
         style="fill:#ffb27d;fill-opacity:1;fill-rule:nonzero;stroke:none"
         d="m 16173,6107.57 c 0,0 -138,84.96 -195.8,71.87 -57.8,-13.08 -205.3,-119.86 -134.4,-142.97 70.9,-23.1 128.4,1.14 155.6,-15.64 27.3,-16.78 47.4,-47.49 174.6,-47.06 127,0.42 0,133.8 0,133.8" /></g><path
       inkscape:connector-curvature="0"
       id="path364"
       style="fill:#163560;fill-opacity:1;fill-rule:nonzero;stroke:none;stroke-width:0.1"
       d="m 749.46,987.42 c -3.251,6.27 70.938,28.85 72.113,-33.04 0,0 138.977,3.42 72.619,80.88 -22.973,26.82 -20.609,48.99 -19.921,69.63 0.699,20.65 -14.309,80.64 -65.75,74.6 0,0 -13.471,5.48 -30.283,-3.25 C 740.004,1156.41 654.356,964.6 749.46,987.42" /><path
       inkscape:connector-curvature="0"
       id="path366"
       style="fill:#ffb27d;fill-opacity:1;fill-rule:nonzero;stroke:none;stroke-width:0.1"
       d="m 976.67,918.23 c 0,0 9.046,13.77 16.337,14.04 7.293,0.27 20.793,4.05 19.713,1.35 -1.08,-2.7 -9.45,-2.97 -10.26,-4.59 -0.81,-1.62 12.42,-4.05 16.2,-4.32 3.78,-0.27 12.69,0 12.42,-1.89 -0.27,-1.89 -16.06,-9.72 -27.2,-8.64 -11.143,1.08 -24.914,-3.24 -24.914,-3.24 l -2.296,7.29" /><path
       inkscape:connector-curvature="0"
       id="path368"
       style="fill:#b0d0ff;fill-opacity:1;fill-rule:nonzero;stroke:none;stroke-width:0.1"
       d="m 845.84,913.77 c 0,0 4.917,-9.73 13.836,-20.92 10.75,-13.46 27.325,-29.02 48.137,-32.09 9.939,-1.46 19.66,0.67 28.596,4.64 0.024,0.01 0.032,0.01 0.032,0.01 25.275,11.22 44.28,37.02 44.28,37.02 4.455,12.15 -2.835,20.39 -2.835,20.39 0,0 -51.036,-11.48 -55.897,-9.05 -4.861,2.43 -33.214,84.12 -39.962,94.38 -6.756,10.26 -29.763,15.59 -29.763,15.59 L 845.84,913.77" /><path
       inkscape:connector-curvature="0"
       id="path370"
       style="fill:#98baf4;fill-opacity:1;fill-rule:nonzero;stroke:none;stroke-width:0.1"
       d="m 859.676,892.85 c 10.75,-13.46 27.325,-29.02 48.137,-32.09 9.939,-1.46 19.66,0.67 28.596,4.64 -0.989,-0.13 -26.231,-3.25 -36.293,14.75 -10.263,18.37 -21.362,47.53 -36.608,37.81 -6.578,-4.19 -6.286,-14.62 -3.832,-25.11" /><path
       inkscape:connector-curvature="0"
       id="path372"
       style="fill:#233862;fill-opacity:1;fill-rule:nonzero;stroke:none;stroke-width:0.1"
       d="m 655.433,362.87 c 0,0 -15.573,-14.22 -12.534,-24.31 3.039,-10.1 17.092,-16.83 18.991,-29.18 1.9,-12.34 9.496,-19.07 16.333,-19.07 6.837,0 32.595,0 32.595,0 0,0 5.033,8.69 -7.122,11.3 -12.154,2.62 -16.737,17.12 -15.977,30.59 0.76,13.46 -1.14,31.41 -1.14,31.41 l -25.828,5.99 -5.318,-6.73" /><path
       inkscape:connector-curvature="0"
       id="path374"
       style="fill:#233862;fill-opacity:1;fill-rule:nonzero;stroke:none;stroke-width:0.1"
       d="m 787.243,356.83 c 0,0 -5.602,-60.2 1.235,-63.57 l 87.497,0.18 c 0,0 0,10.1 -14.054,12.34 -14.054,2.25 -38.743,10.47 -42.921,28.8 -4.178,18.33 -31.757,22.25 -31.757,22.25" /><path
       inkscape:connector-curvature="0"
       id="path376"
       style="fill:#ffb27d;fill-opacity:1;fill-rule:nonzero;stroke:none;stroke-width:0.1"
       d="m 724.891,788.77 c 18.005,40.38 29.023,51.97 26.92,64.5 -1.566,9.33 4.766,173.92 4.766,173.92 2.136,0.66 6.419,1.26 8.761,1.78 7.385,1.64 13.498,6.82 16.042,13.95 3.064,8.58 5.501,21.25 5.444,37.14 l 2.307,-0.46 38.781,-7.68 c 0,0 -0.883,-12.2 -0.909,-23.7 0,-0.1 -0.001,-0.19 -0.001,-0.29 -0.047,-9.98 6.504,-18.79 16.098,-21.56 4.898,-1.42 9.16,-2.63 9.16,-2.63 0,0 14.24,-40.65 16.96,-82.42 2.72,-41.77 -25.895,-59.91 0.216,-143.37 26.658,-85.25 -154.492,-31.49 -144.545,-9.18" /><path
       inkscape:connector-curvature="0"
       id="path378"
       style="fill:#e8945b;fill-opacity:1;fill-rule:nonzero;stroke:none;stroke-width:0.1"
       d="m 827.912,1071.92 c 0,0 -0.883,-12.2 -0.909,-23.7 -21.701,0.61 -33.172,20.41 -37.872,31.38 l 38.781,-7.68" /><path
       inkscape:connector-curvature="0"
       id="path380"
       style="fill:#ffb27d;fill-opacity:1;fill-rule:nonzero;stroke:none;stroke-width:0.1"
       d="m 835.159,1061.04 c 0,0 -51.345,-0.85 -51.38,31.13 -0.035,31.98 -6.686,53.41 26.095,55.31 32.781,1.89 39.164,-10.31 41.772,-20.98 2.608,-10.67 -3.132,-64.42 -16.487,-65.46" /><path
       inkscape:connector-curvature="0"
       id="path382"
       style="fill:#163560;fill-opacity:1;fill-rule:nonzero;stroke:none;stroke-width:0.1"
       d="m 833.259,1148.26 c 0,0 -14.058,-37.52 -35.633,-43.07 -21.575,-5.55 -30.934,0.23 -30.934,0.23 0,0 16.55,13.15 19.984,36.1 0,0 35.978,24.6 46.583,6.74" /><path
       inkscape:connector-curvature="0"
       id="path384"
       style="fill:#163560;fill-opacity:1;fill-rule:nonzero;stroke:none;stroke-width:0.1"
       d="m 829.774,1145.22 c 0,0 10.425,-3.9 14.716,-11.5 4.196,-7.44 7.77,-17.29 6.941,-29.37 0,0 10.591,25.51 -1.312,39.93 -12.621,15.3 -20.345,0.94 -20.345,0.94" /><path
       inkscape:connector-curvature="0"
       id="path386"
       style="fill:#ebf3fa;fill-opacity:1;fill-rule:nonzero;stroke:none;stroke-width:0.1"
       d="m 823.987,1080.88 c 0,0 3.543,-4.67 10.632,-4.33 5.709,0.27 7.911,5.22 7.911,5.22 0,0 -10.488,2.52 -18.543,-0.89" /><path
       inkscape:connector-curvature="0"
       id="path388"
       style="fill:#b0d0ff;fill-opacity:1;fill-rule:nonzero;stroke:none;stroke-width:0.1"
       d="m 719.936,954.38 c 0,0 -1.305,-18.38 0,-40.44 0.866,-14.62 15.658,-34.21 17.756,-39.05 5.266,-12.15 11.204,-14.13 11.204,-14.13 l 45.94,-11.26 16.154,-3.95 50.938,15.21 c 0,0 23.201,64.76 13.885,101.22 -9.316,36.45 -23.549,61.76 -23.549,61.76 0,0 -41.566,-40.69 -95.689,3.46 l -36.639,-72.82" /><path
       inkscape:connector-curvature="0"
       id="path390"
       style="fill:#f2ccaa;fill-opacity:1;fill-rule:nonzero;stroke:none;stroke-width:0.1"
       d="m 733.382,907.97 c 0.867,-14.62 2.212,-28.24 4.31,-33.08 5.266,-12.15 11.204,-14.13 11.204,-14.13 l 45.94,-11.26 19.953,5.87 c 0,0 -66.606,10.09 -59.226,67.4 l -22.181,-14.8" /><path
       inkscape:connector-curvature="0"
       id="path392"
       style="fill:#ed7d2b;fill-opacity:1;fill-rule:nonzero;stroke:none;stroke-width:0.1"
       d="m 858.688,850.93 c 0,0 25.227,-78.52 26.847,-105.25 1.62,-26.73 -48.221,-379.77 -50.226,-392.09 C 833.418,341.98 819,334.58 819,334.58 c 0,0 -6.631,-3.91 -16.095,-1.24 -13.132,3.71 -17.282,8.15 -17.282,8.15 0,0 -19.635,251.78 -7.484,341.72 12.151,89.94 12.294,167.72 12.294,167.72 h 68.255" /><path
       inkscape:connector-curvature="0"
       id="path394"
       style="fill:#f99746;fill-opacity:1;fill-rule:nonzero;stroke:none;stroke-width:0.1"
       d="m 751.811,853.27 c 0,0 -38.48,-51.63 -42.067,-86.53 -3.587,-34.9 -5.628,-157.49 -13.271,-191.52 -7.642,-34.02 -35.722,-99.5 -35.722,-205.62 0,0 2.918,-6.08 11.931,-9.32 2.881,-1.04 6.743,-2.05 10.492,-2.9 7.432,-1.71 15.057,1.92 18.45,8.75 18.983,38.22 79.455,161.5 82.555,187.09 2.195,18.11 21.288,137.97 62.937,208.3 9.999,16.88 -6.137,84.03 -6.137,84.03 l -89.168,7.72" /><path
       inkscape:connector-curvature="0"
       id="path396"
       style="fill:#ffffff;fill-opacity:1;fill-rule:nonzero;stroke:none;stroke-width:0.1"
       d="m 825.128,1080.02 c 0,0 0.888,-3.77 10.265,-3.19 0,0 7.872,0.49 7.631,4.63 0,0 -7.633,2.95 -17.896,-1.44" /><path
       inkscape:connector-curvature="0"
       id="path398"
       style="fill:#233862;fill-opacity:1;fill-rule:nonzero;stroke:none;stroke-width:0.1"
       d="m 862.718,863.05 c 0,0 -10.127,-8.01 -30.245,-8.41 -24.03,-0.49 -83.575,6.12 -83.575,6.12 0,0 -2.646,-7.39 -2.538,-15.19 0,0 72.724,-18.35 114.861,-2.68 0,0 5.434,10.22 1.497,20.16" /><path
       inkscape:connector-curvature="0"
       id="path400"
       style="fill:#ffffff;fill-opacity:1;fill-rule:nonzero;stroke:none;stroke-width:0.1"
       d="m 830.908,846.34 c 0,-4.84 3.288,-8.78 7.33,-8.78 4.043,0 7.331,3.94 7.331,8.78 0,4.84 -3.288,8.78 -7.331,8.78 -4.042,0 -7.33,-3.94 -7.33,-8.78 z m -3.635,0 c 0,6.84 4.918,12.41 10.965,12.41 6.047,0 10.966,-5.57 10.966,-12.41 0,-6.84 -4.919,-12.41 -10.966,-12.41 -6.047,0 -10.965,5.57 -10.965,12.41" /><path
       inkscape:connector-curvature="0"
       id="path402"
       style="fill:#b5453c;fill-opacity:1;fill-rule:nonzero;stroke:none;stroke-width:0.1"
       d="m 670.609,848.85 74.508,-64.88 88.808,101.99 -74.508,64.88 -88.808,-101.99" /><path
       inkscape:connector-curvature="0"
       id="path404"
       style="fill:#ffb27d;fill-opacity:1;fill-rule:nonzero;stroke:none;stroke-width:0.1"
       d="m 765.703,848.61 c 0,0 27.299,-3.19 27.214,-9.67 -0.085,-6.48 -6.802,-19.79 -10.174,-20.39 -3.372,-0.59 -22.217,18.01 -22.217,18.01 l 5.177,12.05" /><path
       inkscape:connector-curvature="0"
       id="path406"
       style="fill:#b0d0ff;fill-opacity:1;fill-rule:nonzero;stroke:none;stroke-width:0.1"
       d="m 756.575,1027.2 c 0,0 -36.447,-2.56 -50.418,-36.52 -13.972,-33.97 -40.48,-90.99 -40.48,-100.58 0,-9.6 14.807,-39.17 94.331,-56.17 0,0 8.225,8.65 7.727,15.49 0,0 -49.641,42.64 -49.508,47.63 0.252,9.42 8.138,21.87 51.722,65.46 11.849,11.86 -13.374,64.69 -13.374,64.69" /><path
       inkscape:connector-curvature="0"
       id="path408"
       style="fill:#b0d4ff;fill-opacity:1;fill-rule:nonzero;stroke:none;stroke-width:0.1"
       d="m 1159.26,292.17 h -0.35 c -2.03,0 -3.67,1.67 -3.62,3.71 l 5.5,238.4 16.2,1.89 -13.82,-240.31 c -0.12,-2.07 -1.83,-3.69 -3.91,-3.69" /><path
       inkscape:connector-curvature="0"
       id="path410"
       style="fill:#95c0f4;fill-opacity:1;fill-rule:nonzero;stroke:none;stroke-width:0.1"
       d="m 1064.84,292.17 h -0.35 c -2.03,0 -3.67,1.67 -3.62,3.71 l 5.5,238.4 16.2,1.89 -13.82,-240.31 c -0.12,-2.07 -1.83,-3.69 -3.91,-3.69" /><path
       inkscape:connector-curvature="0"
       id="path412"
       style="fill:#b0d4ff;fill-opacity:1;fill-rule:nonzero;stroke:none;stroke-width:0.1"
       d="m 1325.38,292.17 h 0.35 c 2.03,0 3.67,1.67 3.63,3.71 l -5.51,238.4 -16.2,1.89 13.82,-240.31 c 0.12,-2.07 1.83,-3.69 3.91,-3.69" /><path
       inkscape:connector-curvature="0"
       id="path414"
       style="fill:#b0d4ff;fill-opacity:1;fill-rule:nonzero;stroke:none;stroke-width:0.1"
       d="m 1054.1,549.07 v 163.37 c 0,28.74 23.31,52.05 52.05,52.05 h 117.7 c 28.75,0 52.05,-23.31 52.05,-52.05 V 542.83 l -221.8,6.24" /><path
       inkscape:connector-curvature="0"
       id="path416"
       style="fill:#95c0f4;fill-opacity:1;fill-rule:nonzero;stroke:none;stroke-width:0.1"
       d="m 1296.99,523.28 h -227.26 c -8.63,0 -15.63,7 -15.63,15.63 v 10.16 h 242.89 v -25.79" /><path
       inkscape:connector-curvature="0"
       id="path418"
       style="fill:#b0d4ff;fill-opacity:1;fill-rule:nonzero;stroke:none;stroke-width:0.1"
       d="m 1324.23,523.28 h -171.94 c -6.38,0 -11.55,5.17 -11.55,11.55 v 2.68 c 0,6.39 5.17,11.56 11.55,11.56 h 171.94 c 6.38,0 11.55,-5.17 11.55,-11.56 v -2.68 c 0,-6.38 -5.17,-11.55 -11.55,-11.55" /><path
       inkscape:connector-curvature="0"
       id="path420"
       style="fill:#233862;fill-opacity:1;fill-rule:nonzero;stroke:none;stroke-width:0.1"
       d="m 1317.55,589.78 c -16.86,-29.35 -38.07,-40.68 -38.07,-40.68 h -88.23 c 0,0 139.16,63.06 126.3,40.68" /><path
       inkscape:connector-curvature="0"
       id="path422"
       style="fill:#ffb27d;fill-opacity:1;fill-rule:nonzero;stroke:none;stroke-width:0.1"
       d="m 1249.79,362.71 c -2.3,-2.63 -2.6,-5.58 -1.46,-8.72 0,-0.01 0.01,-0.03 0.02,-0.04 2.11,-5.82 9.06,-12.31 17.14,-18.8 1.03,-0.83 1.95,-1.59 2.75,-2.29 0.21,-0.18 0.42,-0.37 0.61,-0.55 0.17,-0.15 0.32,-0.3 0.48,-0.43 7.53,-6.94 4.69,-8.53 18.22,-22.62 15.43,-16.05 26.05,-16.34 29.07,-14.88 2.56,1.25 -2.63,9.76 -8.39,19.33 -0.28,0.46 -0.55,0.93 -0.84,1.39 -0.76,1.28 -1.53,2.57 -2.29,3.85 -6.74,11.51 -5.01,16.91 -3.41,34.05 1.3,13.93 21.67,77.8 21.67,77.8 l -29.57,5.1 c 0,0 -8.9,-50.87 -18.71,-58.7 -5.24,-4.18 -11.12,-4.23 -16.16,-7.32 -0.35,-0.22 -0.7,-0.44 -1.04,-0.67 -2.87,-1.9 -5.79,-3.86 -8.09,-6.5" /><path
       inkscape:connector-curvature="0"
       id="path424"
       style="fill:#233862;fill-opacity:1;fill-rule:nonzero;stroke:none;stroke-width:0.1"
       d="m 1249.79,362.71 c -2.3,-2.63 -2.6,-5.58 -1.46,-8.72 0,-0.01 0.01,-0.03 0.02,-0.04 2.58,-5.81 9.36,-12.27 17.16,-18.74 1.02,-0.85 1.92,-1.62 2.73,-2.35 0.21,-0.18 0.42,-0.37 0.61,-0.55 0.17,-0.15 0.32,-0.3 0.48,-0.43 7.53,-6.94 4.69,-8.53 18.22,-22.62 15.43,-16.05 26.05,-16.34 29.07,-14.88 2.56,1.25 -2.63,9.76 -8.39,19.33 -3,1.1 -16.95,6.77 -27.5,20.26 -9.29,11.85 -15.48,27.08 -21.81,35.91 -0.35,-0.22 -0.7,-0.44 -1.04,-0.67 -2.87,-1.9 -5.79,-3.86 -8.09,-6.5" /><path
       inkscape:connector-curvature="0"
       id="path426"
       style="fill:#ffb27d;fill-opacity:1;fill-rule:nonzero;stroke:none;stroke-width:0.1"
       d="m 1488.16,381.18 c 1.83,-9.13 14.84,-7.61 29.37,-4.05 14.53,3.55 11.08,-0.68 31.76,1.61 20.68,2.29 26.95,10.01 27.58,13.08 0.56,2.73 -9.66,3.69 -20.62,4.95 -1.38,0.16 -2.76,0.33 -4.15,0.5 -12.37,1.55 -21.43,9.54 -32.68,16.1 -10.65,6.21 -26.54,31.52 -26.54,31.52 l -28.36,-2.24 c 0,0 14.88,-22.61 20.64,-32.44 3.39,-5.78 3.21,-13.43 2.79,-19.33 -0.22,-3.21 -0.43,-6.49 0.21,-9.7" /><path
       inkscape:connector-curvature="0"
       id="path428"
       style="fill:#233862;fill-opacity:1;fill-rule:nonzero;stroke:none;stroke-width:0.1"
       d="m 1517.53,377.13 c 14.53,3.55 11.08,-0.68 31.76,1.61 20.68,2.29 26.95,10.01 27.58,13.08 0.56,2.73 -9.66,3.69 -20.62,4.95 l -0.1,-0.21 c 0,0 -12.4,-8.79 -29.62,-9.2 -14.03,-0.34 -28.89,3.68 -38.58,3.52 -0.22,-3.21 -0.43,-6.49 0.21,-9.7 1.83,-9.13 14.84,-7.61 29.37,-4.05" /><path
       inkscape:connector-curvature="0"
       id="path430"
       style="fill:#233862;fill-opacity:1;fill-rule:nonzero;stroke:none;stroke-width:0.1"
       d="m 1379.46,562.55 -26.51,-71.35 -34.62,-93.17 c 0,0 -9.39,-0.9 -18.39,1.68 -8.28,2.4 -17.79,8.66 -17.79,8.66 0,0 9.62,100.03 27.55,157.45 4.59,14.74 9.74,26.66 15.43,33.38 27.79,32.85 54.33,-36.65 54.33,-36.65" /><path
       inkscape:connector-curvature="0"
       id="path432"
       style="fill:#2b478b;fill-opacity:1;fill-rule:nonzero;stroke:none;stroke-width:0.1"
       d="m 1352.5,675.86 c -17.37,5.6 -66.91,-1.59 -116.68,-11.33 l -10.42,17.19 -107.51,8.39 c 0,0 -35.47,-78.67 -16.05,-128.79 2.86,-7.37 8.53,-12.09 18.2,-12.25 0,0 1.56,0 1.57,0 0,0 63.98,0.04 84.75,0.04 53.47,0 113.15,36.75 120.87,38.29 12.64,2.53 17.69,-22.75 30.33,-49.28 12.64,-26.54 118.79,-117.53 118.79,-117.53 0,0 16.31,-0.16 23.05,2.37 7.25,2.72 9.9,6.25 9.9,6.25 0,0 -117.62,234.01 -156.8,246.65" /><path
       inkscape:connector-curvature="0"
       id="path434"
       style="fill:#233862;fill-opacity:1;fill-rule:nonzero;stroke:none;stroke-width:0.1"
       d="m 1221.17,994.74 c -13.77,7.23 -34.73,8.21 -38.13,8.67 -40.74,5.47 -65.26,-53.72 -66.7,-71.66 -2.66,-33.06 -20.15,-38.1 -44.76,-58.8 -49.36,-41.52 -34.89,-89.76 -7.9,-107.68 16.2,-10.76 44.74,0 44.74,0 0.4,-0.28 78.06,43.41 116.34,64.49 57.39,8.16 31.5,146.55 -3.59,164.98" /><path
       inkscape:connector-curvature="0"
       id="path436"
       style="fill:#ffb27d;fill-opacity:1;fill-rule:nonzero;stroke:none;stroke-width:0.1"
       d="m 1192.68,847.7 c 0.17,-0.11 -18.84,-6.59 -31.54,-0.97 -11.96,5.29 -21.01,24.95 -20.84,24.96 5.44,0.25 11.41,5.01 16.01,36.21 l 2.32,-0.84 38.93,-14.01 c 0,0 -2.82,-12.49 -4.65,-24.38 -1.53,-9.99 -2.36,-19.56 -0.23,-20.97" /><path
       inkscape:connector-curvature="0"
       id="path438"
       style="fill:#ed975d;fill-opacity:1;fill-rule:nonzero;stroke:none;stroke-width:0.1"
       d="m 1197.56,893.05 c 0,0 -2.82,-12.49 -4.65,-24.38 -22.36,4.02 -31.14,26.3 -34.28,38.39 l 38.93,-14.01" /><path
       inkscape:connector-curvature="0"
       id="path440"
       style="fill:#ffb27d;fill-opacity:1;fill-rule:nonzero;stroke:none;stroke-width:0.1"
       d="m 1203.36,880.65 c 0,0 -53.27,7.16 -48.31,40.26 4.96,33.1 1.43,56.32 35.65,53.16 34.22,-3.17 38.92,-16.79 39.95,-28.24 1.03,-11.45 -13.31,-66.18 -27.29,-65.18" /><path
       inkscape:connector-curvature="0"
       id="path442"
       style="fill:#233862;fill-opacity:1;fill-rule:nonzero;stroke:none;stroke-width:0.1"
       d="m 1228.71,963.97 c 0,0 -34.1,-29.38 -57.29,-31.75 -23.2,-2.37 -31.98,5.08 -31.98,5.08 0,0 13.67,11.35 21.9,29.67 2.42,5.4 7.55,9.1 13.45,9.61 16.56,1.43 47.95,2.08 53.92,-12.61" /><path
       inkscape:connector-curvature="0"
       id="path444"
       style="fill:#233862;fill-opacity:1;fill-rule:nonzero;stroke:none;stroke-width:0.1"
       d="m 1207.4,966.61 c 0,0 11.4,-11.03 15,-19.21 3.46,-7.9 4.5,-26.78 1.74,-34.28 0,0 17.78,34.56 7.71,51.35 -10.67,17.81 -24.45,2.14 -24.45,2.14" /><path
       inkscape:connector-curvature="0"
       id="path446"
       style="fill:#ffffff;fill-opacity:1;fill-rule:nonzero;stroke:none;stroke-width:0.1"
       d="m 1237.53,769.23 c -1.61,-107.83 -0.44,-85.29 -12.23,-95.53 -2.85,-2.46 -10.84,-3.93 -21.35,-4.62 -33.07,-2.2 -91.19,3.25 -93.4,9.36 -7.63,21.14 -2.24,27.71 -8.6,60.08 -0.67,3.44 -1.49,7.17 -2.45,11.23 -5.31,22.23 -10.47,29.79 8.35,65.51 17.07,32.35 34.8,58.61 36.4,57.66 45.03,-26.73 48.66,-4.26 48.66,-4.26 0,0 45.41,-46.83 44.62,-99.43" /><path
       inkscape:connector-curvature="0"
       id="path448"
       style="fill:#2b478b;fill-opacity:1;fill-rule:nonzero;stroke:none;stroke-width:0.1"
       d="m 1352.95,491.2 -34.62,-93.17 c 0,0 -9.39,-0.9 -18.39,1.68 -8.28,2.4 -17.79,8.66 -17.79,8.66 0,0 9.62,100.03 27.55,157.45 l 43.25,-74.62" /><path
       inkscape:connector-curvature="0"
       id="path450"
       style="fill:#ffffff;fill-opacity:1;fill-rule:nonzero;stroke:none;stroke-width:0.1"
       d="m 1192.91,868.67 c 0,0 46.34,-7.86 51.78,-27.81 5.44,-19.95 37.46,-137.23 37.46,-137.23 0,0 -23.55,-4.24 -34.44,6.64 -10.88,10.89 -37.86,100.97 -37.86,100.97 l -16.94,57.43" /><path
       inkscape:connector-curvature="0"
       id="path452"
       style="fill:#ebf3ff;fill-opacity:1;fill-rule:nonzero;stroke:none;stroke-width:0.1"
       d="m 1203.95,669.08 c -33.07,-2.2 -91.19,3.25 -93.4,9.36 -7.63,21.14 -2.24,27.71 -8.6,60.08 l 15.94,44.91 c 0,0 -2.63,-50.01 12.11,-63.16 14.74,-13.15 60.38,-25.39 67.55,-36.38 3.46,-5.28 5.74,-10.56 6.4,-14.81" /><path
       inkscape:connector-curvature="0"
       id="path454"
       style="fill:#ffb27d;fill-opacity:1;fill-rule:nonzero;stroke:none;stroke-width:0.1"
       d="m 1166.07,690.11 c 0,0 32.62,7.26 37.88,4.37 5.26,-2.9 18.12,-13.44 19.74,-17.11 1.61,-3.67 -11.72,2.79 -16.06,3.95 -2.8,0.75 -10.2,-1.81 -13.85,-3.03 -15.4,-5.14 -24.83,-2.5 -24.83,-2.5 l -2.88,14.32" /><path
       inkscape:connector-curvature="0"
       id="path456"
       style="fill:#ffffff;fill-opacity:1;fill-rule:nonzero;stroke:none;stroke-width:0.1"
       d="m 1144.22,872.95 c 0,0 -43.8,-2.7 -58.96,-23.85 -21.35,-29.77 -63.69,-156.63 -39.42,-173.56 27.33,-19.05 124.37,-4.98 124.37,-4.98 0,0 3.23,15.09 -1.26,22.4 -4.5,7.3 -77.51,19.09 -80.88,22.46 -3.37,3.37 42.12,65.72 42.12,75.83 0,10.11 14.03,81.7 14.03,81.7" /><path
       inkscape:connector-curvature="0"
       id="path458"
       style="fill:#ffb27d;fill-opacity:1;fill-rule:nonzero;stroke:none;stroke-width:0.1"
       d="m 1205.53,685.4 c 0,0 6.83,-8.82 9.07,-9.87 2.24,-1.05 3.69,-0.79 3.69,-0.79 l -4.6,8.29 -8.16,2.37" /><path
       inkscape:connector-curvature="0"
       id="path460"
       style="fill:#ffb27d;fill-opacity:1;fill-rule:nonzero;stroke:none;stroke-width:0.1"
       d="m 1203.95,694.48 19.87,-9.65 c 0,0 -0.85,-1.38 -3.29,-1.27 -2.45,0.11 -8.62,2.37 -8.62,2.37 l -7.96,8.55" /><path
       inkscape:connector-curvature="0"
       id="path462"
       style="fill:#f99746;fill-opacity:1;fill-rule:nonzero;stroke:none;stroke-width:0.1"
       d="m 1214.6,662.02 h 157.19 l 47.29,117.59 H 1262.13 L 1214.6,662.02" /><path
       inkscape:connector-curvature="0"
       id="path464"
       style="fill:#ed7d2b;fill-opacity:1;fill-rule:nonzero;stroke:none;stroke-width:0.1"
       d="m 1373.63,666.61 h -207.56 v -4.59 h 205.72 l 1.84,4.59" /><path
       inkscape:connector-curvature="0"
       id="path466"
       style="fill:#ffffff;fill-opacity:1;fill-rule:nonzero;stroke:none;stroke-width:0.1"
       d="m 1332.11,720.82 c 1.19,4.13 -1.2,7.48 -5.34,7.48 -4.13,0 -8.44,-3.35 -9.63,-7.48 -1.18,-4.13 1.21,-7.49 5.34,-7.49 4.14,0 8.45,3.36 9.63,7.49" /><g
       transform="scale(0.125209)"
       id="g468"><path
         inkscape:connector-curvature="0"
         id="path470"
         style="fill:#78acea;fill-opacity:1;fill-rule:nonzero;stroke:none"
         d="m 16257.5,2298.65 h 3.7 c 21.5,0 38.8,18.76 38.3,41.53 l -58.1,2665.95 -171.1,21.16 145.9,-2687.27 c 1.3,-23.25 19.4,-41.37 41.3,-41.37" /></g><path
       inkscape:connector-curvature="0"
       id="path472"
       style="fill:#78acea;fill-opacity:1;fill-rule:nonzero;stroke:none;stroke-width:0.1"
       d="m 1166.85,287.81 h -0.46 c -2.69,0 -4.86,2.35 -4.8,5.2 l 7.28,333.8 21.42,2.65 -18.27,-336.47 c -0.16,-2.91 -2.43,-5.18 -5.17,-5.18" /><g
       transform="scale(0.127299)"
       id="g474"><path
         inkscape:connector-curvature="0"
         id="path476"
         style="fill:#78acea;fill-opacity:1;fill-rule:nonzero;stroke:none"
         d="M 16193.2,4875.67 H 8991.72 c -59,0 -106.84,47.84 -106.84,106.84 v 102.75 c 0,58.99 47.84,106.83 106.84,106.83 h 7201.48 c 59,0 106.8,-47.84 106.8,-106.83 v -102.75 c 0,-59 -47.8,-106.84 -106.8,-106.84" /></g><path
       inkscape:connector-curvature="0"
       id="path478"
       style="fill:#dfedfb;fill-opacity:1;fill-rule:nonzero;stroke:none;stroke-width:0.1"
       d="m 944.847,1233.04 c -3.463,85.71 68.373,123.79 141.833,123.79 73.45,0 153.39,-19.03 160.31,-133 4.46,-73.32 -34.63,-118.43 -147.17,-118.43 -37.96,0 -67.46,5.99 -90.06,16.66 l -56.256,-49.99 27.647,69.1 c -24.491,22.77 -34.809,54.89 -36.304,91.87" /><g
       transform="scale(0.163426)"
       id="g480"><path
         inkscape:connector-curvature="0"
         id="path482"
         style="fill:#233862;fill-opacity:1;fill-rule:nonzero;stroke:none"
         d="m 15997.1,1763.36 c 0,0 12.6,98.52 41.9,157.08 29.3,58.62 215.7,21.35 215.7,21.35 0,0 37.3,-32 45.3,-181.12 l -302.9,2.69" /></g><g
       transform="scale(0.154461)"
       id="g484"><path
         inkscape:connector-curvature="0"
         id="path486"
         style="fill:#233862;fill-opacity:1;fill-rule:nonzero;stroke:none"
         d="m 16253.7,1867.13 c 46.3,28.3 20,239.29 20,239.29 0,0 -216,172.73 -245.7,40.46 -29.6,-132.27 -205.1,-191.63 -305,-207.82 -68.9,-11.2 -90.2,-49.33 -96.8,-71.93 h 627.5" /></g><g
       transform="scale(0.161306)"
       id="g488"><path
         inkscape:connector-curvature="0"
         id="path490"
         style="fill:#213f7a;fill-opacity:1;fill-rule:nonzero;stroke:none"
         d="m 15992.3,3257.42 c -8.4,-46.37 -13.7,-84.44 -15.2,-111.71 -19.2,-374.88 -315.6,-1232.13 -368.6,-1252.1 -82,-30.93 -211.1,34.84 -278.7,56.36 -28,8.92 -46.9,37.19 -40.7,65.83 146.8,674.75 200.7,1646.32 220.4,2221.56 9.9,289.7 59.6,489.82 59.6,489.82 0,0 722.8,192.86 727.1,-51.08 3.8,-215.87 -239.4,-1062.52 -303.9,-1418.68" /></g><g
       transform="scale(0.161306)"
       id="g492"><path
         inkscape:connector-curvature="0"
         id="path494"
         style="fill:#233862;fill-opacity:1;fill-rule:nonzero;stroke:none"
         d="m 15992.3,3257.42 -482.8,979.94 c 9.9,289.7 59.6,489.82 59.6,489.82 0,0 722.8,192.86 727.1,-51.08 3.8,-215.87 -239.4,-1062.52 -303.9,-1418.68" /></g><g
       transform="scale(0.165212)"
       id="g496"><path
         inkscape:connector-curvature="0"
         id="path498"
         style="fill:#213f7a;fill-opacity:1;fill-rule:nonzero;stroke:none"
         d="m 15457.1,4564.67 373.1,-2703.97 c 0,0 163.8,-39.53 291.2,-7.93 0,0 109.3,1438.15 100.2,1785.82 -9.1,347.68 78.4,930.32 -20,994.54 -98.3,64.28 -744.5,-68.46 -744.5,-68.46" /></g><g
       transform="scale(0.164971)"
       id="g500"><path
         inkscape:connector-curvature="0"
         id="path502"
         style="fill:#b0d0ff;fill-opacity:1;fill-rule:nonzero;stroke:none"
         d="m 16298.2,4616.52 c 1.8,-24.49 -13.8,-46.73 -37.4,-53.58 -52.1,-15.1 -112.2,-25.65 -228.1,-49.65 -108.9,-22.61 -255.3,-42.61 -435.2,-43.77 -286.3,-1.81 -394.6,96.87 -394.6,96.87 -12.4,-0.24 6.5,59.65 23.5,344.43 5.7,96.5 11.2,218.76 15.2,373.34 3.7,139.05 6.1,304.29 6.3,500.27 0.3,235.8 365.3,489.44 372,489.44 l 0.1,-0.11 c 0,-33.95 53.5,-96.59 135.9,-102 97.8,-6.39 217.8,42.28 217.8,98.61 0,0.57 176.8,-282.88 239.6,-584.87 31.8,-151.97 18.9,-147.9 84.9,-1068.98" /></g><g
       transform="scale(0.158088)"
       id="g504"><path
         inkscape:connector-curvature="0"
         id="path506"
         style="fill:#b0d0ff;fill-opacity:1;fill-rule:nonzero;stroke:none"
         d="m 16300,6547.01 c 0,0 -354.2,3 -439.4,-116.52 -85.2,-119.56 -272,-762.56 -174.6,-976.49 97.6,-214 280,88.49 381.3,219.56 101.3,131.07 232.7,873.45 232.7,873.45" /></g><g
       transform="scale(0.161707)"
       id="g508"><path
         inkscape:connector-curvature="0"
         id="path510"
         style="fill:#ffb27d;fill-opacity:1;fill-rule:nonzero;stroke:none"
         d="m 15931.6,6453.3 0.2,-35.79 c 0,0 -9.8,-111.92 128.1,-128.27 137.8,-16.38 240.1,20.9 236.3,107.28 -12.4,66.87 -23.9,135.54 -24.8,190.87 -0.3,20.57 1.1,42.38 4.9,67.02 l -267.1,5.34 -78.6,-12.85 1,-193.6" /></g><g
       transform="scale(0.161472)"
       id="g512"><path
         inkscape:connector-curvature="0"
         id="path514"
         style="fill:#e2915a;fill-opacity:1;fill-rule:nonzero;stroke:none"
         d="m 15953.8,6656.57 1,-193.88 c 28.4,-13.2 60.4,-21.27 96.4,-21.27 122.9,0 202.4,90.14 243.8,155.55 -0.3,20.6 1.2,42.45 5,67.12 l -267.5,5.35 -78.7,-12.87" /></g><g
       transform="scale(0.162774)"
       id="g516"><path
         inkscape:connector-curvature="0"
         id="path518"
         style="fill:#ffb27d;fill-opacity:1;fill-rule:nonzero;stroke:none"
         d="m 16190,6653.52 c -30.7,-165.68 -244.5,-160.23 -336.9,-149.82 -26,2.89 -42.4,6.21 -42.4,6.21 -29.3,7.83 -45.7,54 -53.2,114.48 -15.1,119.69 3.9,295.39 24.1,340.32 30.5,67.63 87.8,140.76 303.1,87.99 215.3,-52.81 144.8,-186.92 105.3,-399.18" /></g><g
       transform="scale(0.155614)"
       id="g520"><path
         inkscape:connector-curvature="0"
         id="path522"
         style="fill:#98baf4;fill-opacity:1;fill-rule:nonzero;stroke:none"
         d="m 16191.2,6164.29 c 0,0 -139.1,-307.3 -135.1,-399.45 0,0 68.9,2.38 135.1,-17.35 108.8,-32.39 0,416.8 0,416.8" /></g><g
       transform="scale(0.163266)"
       id="g524"><path
         inkscape:connector-curvature="0"
         id="path526"
         style="fill:#233862;fill-opacity:1;fill-rule:nonzero;stroke:none"
         d="m 15668.2,7100.94 c 0,0 94.5,7.27 205.9,55.72 90.4,39.32 204.5,-3.98 241.6,-23.49 -1,5.96 -3.4,14.11 -9.1,22.28 0,0 16.7,-11.79 19.1,-28.27 1.8,-1.26 2.5,-2.14 2.1,-2.43 0,0 18.8,3.45 31,-2 0,0 -8.6,1.21 -11.6,-4.24 -0.3,-0.58 -0.8,-1.07 -1.3,-1.5 141.1,-68.17 154.1,-291.12 108.7,-342.71 -54.6,-62.07 -137.1,-202.51 -137.1,-202.51 0,0 -6.9,33.69 3,88.31 10,54.61 -37.2,54.61 -96.8,79.44 -59.6,24.83 -9.9,94.34 -62.1,136.55 -52.1,42.21 -243.3,17.38 -240.8,49.65 -71,25.85 -52.6,167.94 -52.6,175.2" /></g><g
       transform="scale(0.162108)"
       id="g528"><path
         inkscape:connector-curvature="0"
         id="path530"
         style="fill:#98baf4;fill-opacity:1;fill-rule:nonzero;stroke:none"
         d="m 16300,5364.76 c -56.4,-226.4 -666.2,-343.42 -804.8,-367.23 5.9,98.21 11.5,222.63 15.6,379.94 l 789.2,-12.71" /></g><g
       transform="scale(0.163644)"
       id="g532"><path
         inkscape:connector-curvature="0"
         id="path534"
         style="fill:#ffb27d;fill-opacity:1;fill-rule:nonzero;stroke:none"
         d="m 16014.4,5241.5 c 5.8,0 134.3,19.18 157.3,30.67 23,11.55 128.3,161.14 59.4,199.52 -69,38.37 -254.1,-115.07 -254.1,-115.07 l 37.4,-115.12" /></g><g
       transform="scale(0.161353)"
       id="g536"><path
         inkscape:connector-curvature="0"
         id="path538"
         style="fill:#b0d0ff;fill-opacity:1;fill-rule:nonzero;stroke:none"
         d="m 15449,5270.87 c 0,0 504.1,-27.39 842.4,45.06 0,0 8.6,97.74 -97.7,141.18 0,0 -527.3,111.74 -654,80.63 -126.7,-31.11 -90.7,-266.87 -90.7,-266.87" /></g><g
       transform="scale(0.166869)"
       id="g540"><path
         inkscape:connector-curvature="0"
         id="path542"
         style="fill:#b0d0ff;fill-opacity:1;fill-rule:nonzero;stroke:none"
         d="m 16057.8,5479.22 c -101.1,-122.01 -233.4,-221.61 -379.2,-244.93 v 0 c -1.2,1.86 -44.2,67.06 -36.1,162.83 3.7,44.34 18.4,95.22 53.1,149.46 10.6,16.66 20.2,36.13 28.6,57.76 79.7,203.16 67.8,594.71 67.8,594.71 0,0 338.1,-35.41 443.5,-185.92 64.5,-92.19 -17.8,-341.07 -177.7,-533.91" /></g><g
       transform="scale(0.158318)"
       id="g544"><path
         inkscape:connector-curvature="0"
         id="path546"
         style="fill:#e2915a;fill-opacity:1;fill-rule:nonzero;stroke:none"
         d="m 16299.2,6686.75 c -26.7,2.97 -43.5,6.38 -43.5,6.38 -30.1,8.05 -47,55.52 -54.7,117.7 56.4,-13.91 82.3,-57.58 93.1,-76.18 4.9,-8.36 5.9,-27.12 5.1,-47.9" /></g><g
       transform="scale(0.158222)"
       id="g548"><path
         inkscape:connector-curvature="0"
         id="path550"
         style="fill:#ffb27d;fill-opacity:1;fill-rule:nonzero;stroke:none"
         d="m 16165.4,6594.39 c 0,0 -123.1,203.22 -27.3,212.06 95.7,8.84 134.2,-55.97 148.1,-79.78 13.8,-23.81 -3.6,-131.22 -3.6,-131.22 l -117.2,-1.06" /></g><g
       transform="scale(0.161514)"
       id="g552"><path
         inkscape:connector-curvature="0"
         id="path554"
         style="fill:#b0d0ff;fill-opacity:1;fill-rule:nonzero;stroke:none"
         d="m 16295.8,5582.73 c -3.7,-25.2 -11.3,-48.42 -20.6,-69.09 -29.4,-65.45 -76.8,-105.82 -76.8,-105.82 h -0.1 c -313.2,141.48 -376.6,627.07 -387.3,893.92 -4.3,107.25 0,179.17 0,179.17 141.4,46.8 181.1,-34.52 181.1,-34.52 0,0 166.9,-396.89 253.4,-656.25 33.1,-99.24 54.5,-178.37 50.3,-207.41" /></g><g
       transform="scale(0.16439)"
       id="g556"><path
         inkscape:connector-curvature="0"
         id="path558"
         style="fill:#98baf4;fill-opacity:1;fill-rule:nonzero;stroke:none"
         d="M 16300,5561.85 C 16197.3,5438 16063.1,5336.9 15915.1,5313.23 h -0.1 c -307.8,139 -370.1,616.1 -380.6,878.28 0,0 145.7,-528.32 344,-713 35.8,-33.4 73.4,-55.54 112.2,-61.32 0,0 250,70.63 302.4,137.18 3.7,4.8 6,7.18 7,7.48" /></g><g
       transform="scale(0.107843)"
       id="g560"><path
         inkscape:connector-curvature="0"
         id="path562"
         style="fill:#2b478b;fill-opacity:1;fill-rule:nonzero;stroke:none"
         d="m 16300,6128.82 h -1457.6 l -438.5,1090.38 h 1455.4 L 16300,6128.82" /></g><g
       transform="scale(0.11082)"
       id="g564"><path
         inkscape:connector-curvature="0"
         id="path566"
         style="fill:#2b478b;fill-opacity:1;fill-rule:nonzero;stroke:none"
         d="M 14427.1,6005.49 H 16300 v -41.33 h -1856.3 l -16.6,41.33" /></g><g
       transform="scale(0.101625)"
       id="g568"><path
         inkscape:connector-curvature="0"
         id="path570"
         style="fill:#ffffff;fill-opacity:1;fill-rule:nonzero;stroke:none"
         d="m 16141.1,7082.35 c -11.7,40.73 11.8,73.7 52.5,73.7 40.7,0 83.1,-32.97 94.8,-73.7 11.6,-40.64 -11.9,-73.61 -52.6,-73.61 -40.7,0 -83.1,32.97 -94.7,73.61" /></g><g
       transform="scale(0.186073)"
       id="g572"><path
         inkscape:connector-curvature="0"
         id="path574"
         style="fill:#2e3552;fill-opacity:1;fill-rule:nonzero;stroke:none"
         d="m 16300,1562.77 v -5.37 c 0,-8.6 -8,-15.64 -17.6,-15.64 H 785.902 c -9.653,0 -17.601,7.04 -17.601,15.64 v 5.37 c 0,8.6 7.948,15.7 17.601,15.7 H 16282.4 c 9.6,0 17.6,-7.1 17.6,-15.7" /></g></g></svg>